<svg width="10" height="18" viewBox="0 0 10 18" fill="none" xmlns="http://www.w3.org/2000/svg">
<path d="M9.5 2.84224H6.5C5.94772 2.84224 5.5 3.26641 5.5 3.78965V6.63189H9.5C9.61374 6.6295 9.7216 6.67963 9.78923 6.7663C9.85685 6.85298 9.87578 6.96538 9.84 7.0677L9.1 9.152C9.03181 9.3433 8.84312 9.47262 8.63 9.47412H5.5V16.5797C5.5 16.8413 5.27614 17.0534 5 17.0534H2.5C2.22386 17.0534 2 16.8413 2 16.5797V9.47412H0.5C0.223858 9.47412 0 9.26204 0 9.00042V7.10559C0 6.84397 0.223858 6.63189 0.5 6.63189H2V3.78965C2 1.69668 3.79086 0 6 0H9.5C9.77614 0 10 0.212085 10 0.473706V2.36853C10 2.63015 9.77614 2.84224 9.5 2.84224Z" fill="#707070"/>
</svg>
