<svg width="18" height="18" viewBox="0 0 18 18" fill="none" xmlns="http://www.w3.org/2000/svg">
<path fill-rule="evenodd" clip-rule="evenodd" d="M13 0.946533H5C2.23858 0.946533 0 3.06739 0 5.6836V13.2629C0 15.8791 2.23858 18 5 18H13C15.7614 18 18 15.8791 18 13.2629V5.6836C18 3.06739 15.7614 0.946533 13 0.946533ZM16.25 13.2637C16.2445 14.9621 14.7926 16.3376 13 16.3428H5C3.20735 16.3376 1.75549 14.9621 1.75 13.2637V5.68439C1.75549 3.98601 3.20735 2.61049 5 2.60529H13C14.7926 2.61049 16.2445 3.98601 16.25 5.68439V13.2637ZM13.75 5.9212C14.3023 5.9212 14.75 5.49703 14.75 4.97378C14.75 4.45054 14.3023 4.02637 13.75 4.02637C13.1977 4.02637 12.75 4.45054 12.75 4.97378C12.75 5.49703 13.1977 5.9212 13.75 5.9212ZM8.99999 5.21076C6.51472 5.21076 4.5 7.11953 4.5 9.4741C4.5 11.8287 6.51472 13.7374 8.99999 13.7374C11.4853 13.7374 13.5 11.8287 13.5 9.4741C13.5027 8.34262 13.0294 7.25676 12.1849 6.45668C11.3404 5.6566 10.1943 5.20824 8.99999 5.21076ZM6.25 9.47404C6.25 10.913 7.48122 12.0794 9 12.0794C10.5188 12.0794 11.75 10.913 11.75 9.47404C11.75 8.03513 10.5188 6.86865 9 6.86865C7.48122 6.86865 6.25 8.03513 6.25 9.47404Z" fill="#707070"/>
</svg>
