<svg width="20" height="18" viewBox="0 0 20 18" fill="none" xmlns="http://www.w3.org/2000/svg">
<path d="M19.9708 3.28076C19.4547 3.93291 18.8309 4.50179 18.1235 4.96542C18.1235 5.13578 18.1235 5.30614 18.1235 5.48597C18.1292 8.57967 16.8249 11.5461 14.5029 13.7203C12.181 15.8945 9.03567 17.0946 5.77211 17.0515C3.88538 17.0574 2.02281 16.6493 0.330301 15.859C0.239042 15.8212 0.18018 15.7357 0.180527 15.6413V15.5372C0.180527 15.4013 0.296758 15.2911 0.440136 15.2911C2.29475 15.2332 4.0832 14.624 5.55244 13.5496C3.87376 13.5176 2.36338 12.5755 1.66829 11.1268C1.63318 11.0476 1.64411 10.9569 1.69713 10.8873C1.75016 10.8177 1.83761 10.7793 1.9279 10.786C2.43809 10.8346 2.95337 10.7896 3.44561 10.6535C1.59249 10.2891 0.200074 8.83154 0.000797149 7.04759C-0.00628542 6.96201 0.0341943 6.87912 0.107613 6.82886C0.181031 6.7786 0.276775 6.76824 0.360256 6.80152C0.857554 7.00941 1.39439 7.11891 1.93788 7.12331C0.314106 6.11359 -0.387258 4.19306 0.230452 2.44789C0.294214 2.27831 0.447402 2.15304 0.633723 2.1181C0.820043 2.08317 1.01201 2.14373 1.13908 2.27753C3.33027 4.48698 6.34099 5.80358 9.53645 5.94972C9.4546 5.64029 9.41434 5.32229 9.41663 5.00328C9.44652 3.33057 10.5389 1.84048 12.1825 1.23063C13.826 0.620768 15.6953 1.01184 16.9153 2.22075C17.747 2.07065 18.551 1.80599 19.3018 1.4352C19.3568 1.40267 19.4265 1.40267 19.4815 1.4352C19.5158 1.48733 19.5158 1.55343 19.4815 1.60556C19.1178 2.39452 18.5035 3.05624 17.7241 3.49844C18.4066 3.42346 19.0771 3.27093 19.7211 3.04415C19.7754 3.00918 19.8466 3.00918 19.9009 3.04415C19.9463 3.06384 19.9802 3.10149 19.9937 3.14709C20.0072 3.19268 19.9988 3.24157 19.9708 3.28076Z" fill="#707070"/>
</svg>
